PathFileType	4	(X/Y/Z)	C:\Users\WrightLab\Desktop\Jo\P5V17.trc
DataRate	CameraRate	NumFrames	NumMarkers	Units	OrigDataRate	OrigDataStartFrame	OrigNumFrames
100.00	100.00	       20	19	mm	100.00	1	       633
Frame#	Time	Headset_Front			Headset_Back			Headset_Left			Headset_Right			Left_Shoulder			Right_Shoulder			Sternum			C7			Left Elbow			Right Elbow			Left Wrist			Right Wrist			Left ASIS			Right ASIS			S2			Left Knee			Right Knee			Left Ankle			Right Ankle			
		X1	Y1	Z1	X2	Y2	Z2	X3	Y3	Z3	X4	Y4	Z4	X5	Y5	Z5	X6	Y6	Z6	X7	Y7	Z7	X8	Y8	Z8	X9	Y9	Z9	X10	Y10	Z10	X11	Y11	Z11	X12	Y12	Z12	X13	Y13	Z13	X14	Y14	Z14	X15	Y15	Z15	X16	Y16	Z16	X17	Y17	Z17	X18	Y18	Z18	X19	Y19	Z19	

1	0.000																			-281.36020	1318.64929	-1091.59460							-573.38818	1182.09521	-1219.08276	-35.29533	1163.04639	-1052.68872	-493.66351	1123.03540	-1006.01300	-152.84587	928.02307	-1071.43091	-420.61456	949.45905	-1066.38452				-97.63598	481.19177	-1127.08948	-468.92368	475.14182	-1106.51208	-422.88647	71.34571	-1222.23987				
2	0.010																			-281.22617	1318.84412	-1091.30286							-573.17224	1181.98145	-1219.09644	-35.23345	1162.99622	-1052.68140	-493.15561	1122.67761	-1006.00232	-152.71304	928.01746	-1071.34204	-420.70956	949.31927	-1066.53381				-97.67310	480.99963	-1127.06299	-468.58347	474.68652	-1106.46448	-422.87613	71.34696	-1222.19080				
3	0.020																			-281.22617	1318.84412	-1091.30286							-572.85657	1181.63904	-1219.39648	-35.23339	1162.86902	-1052.25562	-492.83783	1122.18506	-1005.91687	-152.58115	928.00964	-1071.25378	-420.00165	949.20117	-1066.45105				-97.68402	480.98279	-1127.06494	-468.59903	474.68600	-1106.47119	-422.90158	71.28714	-1222.29736				
4	0.030																			-281.22617	1318.84412	-1091.30286							-572.24408	1181.42883	-1219.90552	-32.91528	1162.10986	-1051.52417	-492.99667	1121.80994	-1006.65857	-152.43724	928.00299	-1071.15747	-419.76080	948.92627	-1066.59717				-97.67802	481.11093	-1126.24170	-469.06366	475.52994	-1106.81921	-422.89725	71.31438	-1222.28357				
5	0.040																			-281.15433	1318.90906	-1090.90417							-571.88690	1181.40833	-1220.29236	-32.95180	1161.92822	-1051.24426	-492.97177	1121.66443	-1007.03467	-151.60112	928.12500	-1070.80579	-419.65363	948.91461	-1066.54517				-96.95978	481.05707	-1126.06824	-469.00034	475.49457	-1107.54626	-422.85428	71.39172	-1222.09753				
6	0.050																			-281.15216	1318.79443	-1090.17407							-571.06000	1180.94202	-1220.61719	-32.33326	1161.66309	-1050.86511	-493.08429	1121.50195	-1006.97748	-151.51529	928.12714	-1070.74866	-419.63345	948.90656	-1066.53479				-97.06125	480.83835	-1125.79749	-469.00873	475.49020	-1107.54944	-422.92529	71.25533	-1222.40271				
7	0.060																			-281.18451	1318.69495	-1089.92126							-570.71765	1180.77319	-1220.79492	-32.23648	1161.58325	-1050.83179	-493.12061	1121.25793	-1007.71490	-151.31409	928.13727	-1070.61487	-419.27026	948.92133	-1066.67004				-97.06908	481.01590	-1125.36646	-468.43079	474.47037	-1107.12024	-422.92554	71.27152	-1222.40796				
8	0.070																			-281.18451	1318.69495	-1089.92126							-570.32074	1180.74756	-1221.27026	-31.78967	1161.10193	-1050.75647	-493.13577	1121.22974	-1007.71515	-151.15289	927.85535	-1070.50610	-419.31534	948.79651	-1066.83264				-96.51883	480.95325	-1125.66516	-468.74808	474.59042	-1106.74097	-422.97650	71.18022	-1222.62866				
9	0.080																			-281.15353	1318.70398	-1089.63184							-569.99182	1180.64807	-1221.46375	-31.72750	1161.08325	-1050.73792	-493.29947	1120.89941	-1008.06000	-151.01476	927.84363	-1070.41345	-418.92755	948.62823	-1067.18384				-96.36839	480.89645	-1125.59741	-469.07059	474.88400	-1107.30029	-422.94476	71.23953	-1222.49182				
10	0.090																			-281.15353	1318.70398	-1089.63184							-569.57733	1180.70764	-1221.63013	-31.62557	1159.22192	-1059.10864	-493.25443	1120.84180	-1008.35364	-150.87271	927.83868	-1070.31836	-419.20377	948.67377	-1066.95435				-96.05908	480.82553	-1125.35461	-468.69394	474.61731	-1108.17004	-422.98300	71.15639	-1222.65369				
11	0.100																			-280.43430	1318.17554	-1089.30627							-568.82947	1180.70862	-1222.40857	-31.65904	1160.91003	-1049.81555	-493.35541	1120.63550	-1008.95776	-150.76193	927.33655	-1070.74609	-418.73785	948.61023	-1067.09204				-96.03839	480.83560	-1125.34558	-468.57425	473.88058	-1108.15564	-422.98389	71.14265	-1222.65442				
12	0.110																			-280.33206	1318.25793	-1088.67542							-568.32263	1180.60156	-1223.00134	-31.51999	1161.08801	-1048.71240	-492.91806	1120.09888	-1009.16821	-149.65950	927.34900	-1070.35181	-418.47327	948.25488	-1067.29028				-95.59138	480.69861	-1125.49353	-468.91885	474.81082	-1108.53174	-423.00476	71.11462	-1222.74719				
13	0.120																			-279.07187	1317.20801	-1088.44739							-568.11786	1180.41785	-1223.18188	-31.48733	1160.94397	-1048.42285	-492.79596	1120.10474	-1009.35699	-149.59669	927.33514	-1070.30933	-418.04865	948.13263	-1066.98145				-95.09960	480.93130	-1125.17908	-468.55478	475.06229	-1108.89111	-422.99899	71.12497	-1222.72229				
14	0.130																			-279.07187	1317.20801	-1088.44739							-567.88141	1180.30212	-1223.20630	-31.05193	1160.31323	-1048.12708	-492.81235	1120.10107	-1009.36090	-148.95917	927.18951	-1070.06665	-418.05011	948.04749	-1067.15796				-94.68311	481.00455	-1124.77917	-468.15051	474.46344	-1108.71887	-422.99844	71.11123	-1222.71619				
15	0.140																			-279.07187	1317.20801	-1088.44739							-567.63605	1180.26245	-1223.53796	-30.81134	1159.85413	-1047.98364	-492.69202	1119.61865	-1009.22925	-148.89650	927.20190	-1070.02539	-417.98389	948.04486	-1067.12622				-94.51997	480.64926	-1124.69409	-467.95633	474.62155	-1108.53540	-422.98422	71.14043	-1222.65564				
16	0.150																			-279.07187	1317.20801	-1088.44739							-567.40369	1180.18933	-1223.73889	-30.43912	1160.23535	-1047.36353	-492.63803	1119.54688	-1009.20508	-148.85567	927.18225	-1069.99719	-417.87247	947.51575	-1066.91455				-94.53786	480.46005	-1124.51208	-467.81168	474.46103	-1107.99915	-422.95093	71.18311	-1222.50720				
17	0.160																			-278.85062	1317.44250	-1087.42517							-566.98157	1179.89563	-1223.98083	-30.37185	1160.19788	-1047.34192	-492.03244	1118.58350	-1009.88672	-148.80901	927.19275	-1069.96655	-417.85654	947.51166	-1066.90662				-94.43573	480.45758	-1124.32507	-467.25690	474.49042	-1107.36035	-422.95657	71.20924	-1222.54065				
18	0.170																			-278.88943	1316.71338	-1086.94543							-566.57690	1179.56348	-1224.06140	-30.03142	1160.38892	-1047.23755	-492.13724	1118.44690	-1009.82172	-148.78902	926.25348	-1070.59851	-417.75391	947.31799	-1066.85803				-94.57381	480.08456	-1123.67273	-466.46286	474.66556	-1106.92078	-422.90408	71.28046	-1222.30774				
19	0.180																			-278.88943	1316.71338	-1086.94543							-566.33295	1179.44006	-1224.07971	-29.83738	1160.45129	-1045.87561	-492.18085	1118.27222	-1009.99402	-148.66716	926.27283	-1070.51794	-416.93918	946.24542	-1066.80444				-93.63792	480.54980	-1123.38977	-466.20496	474.70825	-1106.84424	-422.95615	71.22967	-1222.54370				
20	0.190																			-277.79883	1316.36316	-1086.89294							-565.57410	1178.99866	-1224.11816	-29.71305	1160.37244	-1045.38049	-492.15756	1118.23914	-1009.98334	-148.63364	926.27545	-1070.49573	-416.66382	946.09119	-1066.75439				-93.36735	480.22556	-1122.67419	-465.46671	475.19943	-1106.07874	-422.89865	71.30538	-1222.28796				
